<?xml version="1.0" standalone="no"?>
<!DOCTYPE svg PUBLIC "-//W3C//DTD SVG 1.1//EN" "http://www.w3.org/Graphics/SVG/1.1/DTD/svg11.dtd" >
<svg xmlns="http://www.w3.org/2000/svg">
<metadata>Generated by IcoMoon</metadata>
<defs>
<font id="icomoon" horiz-adv-x="1024">
<font-face units-per-em="1024" ascent="960" descent="-64" />
<missing-glyph horiz-adv-x="1024" />
<glyph unicode="&#x20;" horiz-adv-x="512" d="" />
<glyph unicode="&#xe900;" glyph-name="credit-card" horiz-adv-x="1536" d="M1440.914-27.429h-1367.771c-21.943 0-36.571 14.629-36.571 36.571v877.714c0 21.943 14.629 36.571 36.571 36.571h1367.771c21.943 0 36.571-14.629 36.571-36.571v-877.714c0-21.943-21.943-36.571-36.571-36.571zM109.714 45.714h1294.629v804.571h-1294.629v-804.571zM512 170.057h-292.571c-21.943 0-36.571 14.629-36.571 36.571s14.629 36.571 36.571 36.571h292.571c21.943 0 36.571-14.629 36.571-36.571s-14.629-36.571-36.571-36.571zM416.914 316.343h-197.486c-21.943 0-36.571 14.629-36.571 36.571s14.629 36.571 36.571 36.571h197.486c21.943 0 36.571-14.629 36.571-36.571s-21.943-36.571-36.571-36.571zM73.143 689.371v-95.086h1367.771v95.086h-1367.771zM1440.914 557.714h-1367.771c-21.943 0-36.571 14.629-36.571 36.571v95.086c0 21.943 14.629 36.571 36.571 36.571h1367.771c21.943 0 36.571-14.629 36.571-36.571v-95.086c0-21.943-21.943-36.571-36.571-36.571zM109.714 630.857h1294.629v21.943h-1294.629v-21.943z" />
<glyph unicode="&#xe901;" glyph-name="lisit" d="M724.114 23.771h-424.229c-29.257 0-65.829 14.629-87.771 36.571s-36.571 51.2-36.571 87.771v512c0 29.257 14.629 65.829 36.571 87.771s51.2 36.571 87.771 36.571h87.771c21.943 0 36.571-14.629 36.571-36.571s-21.943-36.571-43.886-36.571h-80.457c-14.629 0-21.943-7.314-36.571-14.629s-14.629-21.943-14.629-36.571v-512c0-14.629 7.314-21.943 14.629-36.571 7.314-7.314 21.943-14.629 36.571-14.629h424.229c14.629 0 21.943 7.314 36.571 14.629 7.314 7.314 14.629 21.943 14.629 36.571v512c0 14.629-7.314 21.943-14.629 36.571-7.314 7.314-21.943 14.629-36.571 14.629h-80.457c-21.943 0-36.571 14.629-36.571 36.571s14.629 36.571 36.571 36.571h87.771c29.257 0 65.829-14.629 87.771-36.571s36.571-51.2 36.571-87.771v-512c0-29.257-14.629-65.829-36.571-87.771-29.257-21.943-58.514-36.571-95.086-36.571zM555.886 623.543h-87.771c-65.829 0-124.343 51.2-124.343 124.343s51.2 124.343 124.343 124.343h87.771c65.829 0 124.343-51.2 124.343-124.343s-58.514-124.343-124.343-124.343zM468.114 799.086c-29.257 0-43.886-21.943-43.886-51.2s14.629-51.2 43.886-51.2h87.771c29.257 0 51.2 21.943 51.2 51.2s-21.943 51.2-51.2 51.2h-87.771zM387.657 411.429c-21.943 0-36.571 14.629-36.571 36.571s14.629 36.571 29.257 36.571v0c21.943 0 36.571-14.629 36.571-36.571s-14.629-36.571-29.257-36.571zM643.657 411.429h-87.771c-21.943 0-36.571 14.629-36.571 36.571s14.629 36.571 36.571 36.571h87.771c14.629 0 29.257-14.629 29.257-36.571s-14.629-36.571-29.257-36.571zM387.657 243.2c-21.943 0-36.571 14.629-36.571 36.571s14.629 36.571 29.257 36.571v0c21.943 0 36.571-14.629 36.571-36.571s-14.629-36.571-29.257-36.571zM643.657 243.2h-87.771c-21.943 0-36.571 14.629-36.571 36.571s14.629 36.571 36.571 36.571h87.771c21.943 0 36.571-14.629 36.571-36.571s-21.943-36.571-36.571-36.571z" />
<glyph unicode="&#xe902;" glyph-name="clock" d="M512 960c-101.264 0-200.253-30.028-284.452-86.287s-149.822-136.223-188.574-229.779c-38.752-93.555-48.891-196.501-29.136-295.82s68.519-190.548 140.123-262.149c71.605-71.612 162.834-120.371 262.153-140.126s202.265-9.617 295.82 29.133c93.556 38.758 173.517 104.38 229.777 188.576 56.26 84.198 86.289 183.188 86.289 284.452 0 67.237-13.244 133.815-38.972 195.934-25.737 62.119-63.445 118.561-110.993 166.105-47.54 47.543-103.982 85.257-166.101 110.988s-128.697 38.974-195.934 38.974zM512 38.4c-81.011 0-160.203 24.021-227.562 69.030-67.358 45.007-119.857 108.978-150.859 183.823s-39.113 157.202-23.309 236.656c15.805 79.455 54.816 152.439 112.099 209.722s130.267 96.294 209.722 112.099c79.455 15.805 161.812 7.693 236.656-23.309s138.815-83.501 183.823-150.859c45.009-67.359 69.030-146.551 69.030-227.562 0-108.633-43.153-212.816-119.969-289.631-76.815-76.816-180.998-119.969-289.631-119.969zM716.791 499.2h-153.6v153.6c0 13.579-5.394 26.602-14.996 36.204s-22.625 14.996-36.204 14.996c-13.579 0-26.602-5.394-36.204-14.996s-14.996-22.624-14.996-36.204v-204.8c0-13.579 5.395-26.602 14.996-36.204s22.624-14.996 36.204-14.996h204.8c13.579 0 26.602 5.394 36.204 14.996s14.996 22.624 14.996 36.204c0 13.579-5.394 26.602-14.996 36.204s-22.625 14.996-36.204 14.996z" />
<glyph unicode="&#xe903;" glyph-name="global" d="M938.672 448.048c0 56.031-11.037 111.513-32.475 163.278-21.445 51.765-52.875 98.801-92.489 138.421-39.621 39.62-86.657 71.048-138.423 92.49s-107.248 32.478-163.278 32.478c-113.159 0-221.684-44.952-301.699-124.967s-124.967-188.54-124.967-301.699c0-113.159 44.952-221.685 124.967-301.696 80.015-80.018 188.54-124.972 301.699-124.972s221.683 44.954 301.701 124.972c80.011 80.011 124.965 188.537 124.965 301.696zM850.352 490.715h-125.012c-7.037 100.345-41.418 196.849-99.414 279.039 59.582-21.161 112.115-58.456 151.744-107.726s64.79-108.579 72.682-171.313zM387.419 405.381h252.586c-10.919-105.412-55.848-204.406-128-282.026-72.103 77.297-116.002 176.669-124.586 282.026zM387.419 490.715c9.936 104.882 53.657 203.702 124.586 281.599 72.735-77.061 117.766-176.129 128-281.599h-252.586zM402.779 771.034c-58.302-82.646-93.235-179.487-101.12-280.319h-128c8.060 63.509 33.818 123.472 74.332 173.040s94.152 86.743 154.788 107.279zM173.659 405.381h128c7.027-100.748 41.723-197.604 100.266-279.89-60.417 20.634-113.835 57.805-154.186 107.279-40.351 49.477-66.016 109.278-74.081 172.611zM623.792 125.915c58.386 82.315 93.469 178.868 101.547 279.466h125.868c-8.068-63.157-33.646-122.798-73.83-172.184-40.185-49.382-93.385-86.546-153.585-107.282z" />
<glyph unicode="&#xe904;" glyph-name="phone-call" d="M563.2 652.767c40.737 0 79.806-16.183 108.611-44.989s44.989-67.874 44.989-108.611c0-13.579 5.394-26.602 14.996-36.204s22.624-14.996 36.204-14.996c13.579 0 26.602 5.394 36.204 14.996s14.996 22.624 14.996 36.204c0 67.895-26.971 133.010-74.981 181.019s-113.124 74.981-181.019 74.981c-13.579 0-26.602-5.394-36.204-14.996s-14.996-22.624-14.996-36.204c0-13.579 5.394-26.602 14.996-36.204s22.624-14.996 36.204-14.996zM563.2 857.6c95.054 0 186.214-37.76 253.427-104.973s104.973-158.374 104.973-253.427c0-13.579 5.393-26.602 14.993-36.204 9.609-9.603 22.63-14.996 36.207-14.996s26.598 5.394 36.207 14.996c9.6 9.602 14.993 22.624 14.993 36.204 0 122.212-48.546 239.418-134.963 325.835-86.419 86.416-203.625 134.965-325.837 134.965-13.579 0-26.602-5.394-36.204-14.996s-14.996-22.625-14.996-36.204c0-13.579 5.394-26.602 14.996-36.204s22.624-14.996 36.204-14.996zM1011.2 247.808c-2.816 8.219-7.68 15.587-14.123 21.409-6.451 5.821-14.276 9.907-22.741 11.871l-307.2 70.144c-8.339 1.891-17.018 1.663-25.246-0.662s-15.742-6.674-21.858-12.65c-7.168-6.656-7.68-7.168-40.96-70.656-110.428 50.885-198.912 139.732-249.344 250.368 65.024 32.768 65.536 32.768 72.192 40.448 5.976 6.116 10.324 13.63 12.65 21.858s2.553 16.907 0.662 25.246l-70.144 303.616c-1.964 8.464-6.049 16.288-11.871 22.737s-13.19 11.311-21.409 14.127c-11.957 4.271-24.304 7.357-36.864 9.216-12.941 3.001-26.146 4.716-39.424 5.12-62.464 0-122.369-24.814-166.538-68.982s-68.982-104.074-68.982-166.538c0.271-209.035 83.43-409.43 231.24-557.24s348.205-230.967 557.24-231.24c30.929 0 61.555 6.093 90.129 17.929 28.578 11.836 54.537 29.184 76.407 51.055s39.219 47.829 51.055 76.407c11.836 28.574 17.929 59.2 17.929 90.129 0.017 13.032-1.015 26.044-3.072 38.912-2.15 12.717-5.41 25.224-9.728 37.376zM788.48 38.4c-181.918 0.137-356.347 72.463-484.982 201.098s-200.963 303.064-201.098 484.982c0.135 35.264 14.203 69.046 39.139 93.981s58.717 39.004 93.981 39.139h16.896l54.784-237.568-27.648-14.336c-44.032-23.040-78.848-41.472-60.416-81.408 30.014-84.971 78.58-162.188 142.169-226.042s140.603-112.742 225.447-143.11c43.008-17.408 59.904 14.848 82.944 59.392l14.848 28.16 237.056-54.272v-16.896c-0.137-35.264-14.199-69.043-39.142-93.978-24.934-24.943-58.714-39.006-93.978-39.142z" />
<glyph unicode="&#xe905;" glyph-name="phone" d="M742.407 21.38c-174.197 0.219-341.193 69.522-464.369 192.695-123.175 123.176-192.474 290.172-192.699 464.368 0 52.054 20.678 101.974 57.485 138.782s86.728 57.485 138.781 57.485c11.023 0.084 22.027-0.916 32.854-2.987 10.467-1.548 20.756-4.121 30.72-7.68 7.008-2.458 13.253-6.704 18.117-12.317s8.179-12.397 9.616-19.683l58.454-256c1.575-6.949 1.386-14.181-0.551-21.038s-5.562-13.119-10.542-18.215c-5.546-5.974-5.973-6.4-58.453-33.707 42.026-92.197 115.763-166.235 207.786-208.64 27.734 52.907 28.16 53.334 34.134 58.88 5.096 4.98 11.358 8.604 18.215 10.542s14.090 2.127 21.038 0.551l255.999-58.454c7.051-1.636 13.575-5.040 18.951-9.893 5.369-4.852 9.421-10.991 11.769-17.84 3.599-10.127 6.312-20.549 8.104-31.146 1.719-10.723 2.575-21.569 2.56-32.423-0.783-51.836-22.045-101.252-59.136-137.457-37.091-36.213-86.996-56.283-138.832-55.823z" />
<glyph unicode="&#xe906;" glyph-name="magnifier" d="M593.13 843.573c186.973 0 338.544-151.101 338.544-337.494 0-186.395-151.572-337.494-338.544-337.494-93.496 0-178.078 37.732-239.383 98.85-61.305 61.113-99.156 145.437-99.156 238.644 0 186.393 151.57 337.494 338.54 337.494zM1006.904 506.078c0 227.814-185.251 412.493-413.774 412.493-228.519 0-413.771-184.679-413.771-412.493 0-100.389 36.012-192.452 95.798-263.961l-235.244-234.516c-14.69-14.643-14.69-38.385 0-53.029 14.69-14.648 38.507-14.648 53.197 0l235.244 234.516c71.731-59.602 164.078-95.505 264.776-95.505 228.523 0 413.774 184.681 413.774 412.495z" />
<glyph unicode="&#xe907;" glyph-name="tick" horiz-adv-x="1315" d="M1270.999 925.875c41.719-35.038 47.129-97.256 12.086-138.968l-684.027-814.32c-0.004-0.004-0.005-0.006-75.532 63.435l75.527-63.441c-17.781-21.168-43.63-33.903-71.25-35.102s-54.474 9.249-74.023 28.797l-414.606 414.606c-38.52 38.52-38.52 100.973 0 139.493s100.973 38.52 139.493 0l338.532-338.532 614.835 731.948c35.038 41.712 97.256 47.122 138.966 12.084z" />
<glyph unicode="&#xe908;" glyph-name="plus" d="M512 874.667c26.183 0 47.408-21.225 47.408-47.408v-331.851h331.85c26.183 0 47.408-21.225 47.408-47.408s-21.225-47.408-47.408-47.408h-331.85v-331.85c0-26.183-21.225-47.408-47.408-47.408s-47.408 21.225-47.408 47.408v331.85h-331.851c-26.183 0-47.408 21.225-47.408 47.408s21.225 47.408 47.408 47.408h331.851v331.851c0 26.183 21.225 47.408 47.408 47.408z" />
<glyph unicode="&#xe909;" glyph-name="basket" d="M938.667 801.524c0 16.832-13.715 30.476-30.633 30.476h-56.599c-34.696 0-65.059-23.206-74-56.558l-9.447-35.247c-14.557 0.251-29.143 0.376-43.758 0.376-212.545 0-418.89-26.592-615.84-76.631-8.253-2.096-15.256-7.518-19.327-14.959-4.072-7.443-4.844-16.237-2.133-24.271 34.082-100.968 74.545-199.020 120.913-293.68 5.132-10.478 15.821-17.126 27.539-17.126h458.215c40.014 0 74.056-25.443 86.673-60.953h-607.454c-16.919 0-30.634-13.646-30.634-30.476 0-16.832 13.715-30.476 30.634-30.476h643.317c16.919 0 30.633 13.644 30.633 30.476 0 70.905-48.679 130.498-114.601 147.509l104.471 389.75c1.788 6.67 7.86 11.312 14.8 11.312h56.599c16.919 0 30.633 13.645 30.633 30.477zM751.71 679.466l-81.65-304.61h-415.446c-37.033 77.151-70.057 156.57-98.807 237.988 182.275 43.647 372.614 66.774 568.422 66.774 9.172 0 18.333-0.049 27.48-0.152zM846.765 100.571c0 33.663-27.431 60.953-61.267 60.953-33.838 0-61.269-27.29-61.269-60.953s27.431-60.953 61.269-60.953c33.836 0 61.267 27.29 61.267 60.953zM325.985 100.571c0 33.663-27.431 60.953-61.269 60.953-33.836 0-61.267-27.29-61.267-60.953s27.431-60.953 61.267-60.953c33.838 0 61.269 27.29 61.269 60.953z" />
<glyph unicode="&#xe90a;" glyph-name="minus" d="M64 450.287c0 25.247 21.225 45.713 47.408 45.713h758.517c26.183 0 47.408-20.466 47.408-45.713s-21.225-45.716-47.408-45.716h-758.517c-26.183 0-47.408 20.469-47.408 45.716z" />
<glyph unicode="&#xe90b;" glyph-name="close" d="M78.579 881.421c19.44 19.439 50.957 19.439 70.397 0l363.024-363.023 363.025 363.023c19.439 19.44 50.955 19.44 70.394 0 19.442-19.439 19.442-50.957 0-70.396l-363.022-363.024 363.022-363.025c19.442-19.439 19.442-50.955 0-70.394-19.439-19.442-50.955-19.442-70.394 0l-363.025 363.022-363.024-363.022c-19.44-19.442-50.957-19.442-70.397 0-19.439 19.439-19.439 50.955 0 70.394l363.023 363.025-363.023 363.024c-19.439 19.44-19.439 50.957 0 70.397z" />
<glyph unicode="&#xe90c;" glyph-name="trash" d="M693.332 753.648v-9.215c38.471-3.551 76.623-8.222 114.424-13.979 13.998-2.131 27.943-4.412 41.841-6.84 16.446-2.873 27.471-18.646 24.619-35.231-2.849-16.585-18.488-27.7-34.934-24.827-2.805 0.49-5.613 0.974-8.422 1.451l-40.513-531.118c-4.847-63.513-57.366-112.556-120.534-112.556h-315.631c-63.167 0-115.685 49.043-120.53 112.556l-40.514 531.118c-2.809-0.478-5.616-0.961-8.421-1.451-16.446-2.873-32.088 8.243-34.937 24.827s8.174 32.358 24.62 35.231c13.898 2.428 27.846 4.708 41.842 6.84 37.801 5.757 75.954 10.427 114.425 13.979v9.215c0 63.572 48.86 117.842 113.45 119.925 22.54 0.727 45.171 1.094 67.882 1.094s45.341-0.366 67.882-1.094c64.59-2.083 113.45-56.353 113.45-119.925zM446.051 812.652c21.895 0.707 43.88 1.062 65.949 1.062s44.054-0.356 65.949-1.062c30.407-0.981 54.939-26.729 54.939-59.004v-4.577c-39.989 2.449-80.297 3.691-120.888 3.691s-80.899-1.242-120.888-3.691v4.577c0 32.275 24.533 58.023 54.939 59.004zM431.756 571.075c-0.642 16.818-14.684 29.929-31.362 29.283-16.679-0.649-29.677-14.808-29.038-31.626l13.948-365.714c0.642-16.818 14.684-29.929 31.362-29.283 16.679 0.649 29.68 14.808 29.038 31.626l-13.948 365.714zM652.608 568.733c0.639 16.818-12.359 30.978-29.038 31.626-16.679 0.645-30.72-12.465-31.362-29.283l-13.948-365.714c-0.642-16.818 12.359-30.978 29.038-31.626 16.679-0.645 30.72 12.465 31.362 29.283l13.948 365.714z" />
<glyph unicode="&#xe90d;" glyph-name="arrow-right" d="M736.771 476.799c16.040-15.906 16.040-41.692 0-57.598l-410.667-407.273c-16.036-15.903-42.038-15.903-58.075 0-16.038 15.906-16.038 41.692 0 57.598l381.628 378.474-381.628 378.474c-16.038 15.905-16.038 41.692 0 57.597s42.040 15.905 58.078 0l410.664-407.272z" />
<glyph unicode="&#xe90e;" glyph-name="ticket" d="M85.333 670.476c0 42.079 34.112 76.19 76.19 76.19h700.953c42.078 0 76.19-34.112 76.19-76.19v-122.976c0-10.879-5.798-20.934-15.215-26.379-27.409-15.855-45.739-45.414-45.739-79.219 0-33.801 18.33-63.36 45.739-79.215 9.417-5.444 15.215-15.501 15.215-26.381v-122.974c0-42.078-34.112-76.19-76.19-76.19h-700.953c-42.079 0-76.19 34.112-76.19 76.19v122.974c0 10.88 5.799 20.937 15.216 26.381 27.408 15.855 45.737 45.414 45.737 79.215 0 33.805-18.329 63.364-45.737 79.219-9.417 5.444-15.216 15.5-15.216 26.379v122.976zM161.524 685.714c-8.416 0-15.238-6.822-15.238-15.238v-106.66c36.967-27.767 60.952-72.023 60.952-121.914 0-49.886-23.985-94.144-60.952-121.911v-106.658c0-8.414 6.822-15.236 15.238-15.236h502.856v30.473c0 16.832 13.645 30.477 30.477 30.477s30.477-13.645 30.477-30.477v-30.473h137.143c8.414 0 15.236 6.822 15.236 15.236v106.658c-36.966 27.767-60.949 72.026-60.949 121.911 0 49.89 23.983 94.146 60.949 121.914v106.66c0 8.416-6.822 15.238-15.236 15.238h-137.143v-30.476c0-16.832-13.645-30.476-30.477-30.476s-30.477 13.644-30.477 30.476v30.476h-502.856zM694.857 563.81c16.832 0 30.477-13.645 30.477-30.476v-30.477c0-16.832-13.645-30.477-30.477-30.477s-30.477 13.645-30.477 30.477v30.477c0 16.832 13.645 30.476 30.477 30.476zM298.667 411.43c0 16.828 13.645 30.473 30.476 30.473h213.334c16.832 0 30.477-13.645 30.477-30.473 0-16.832-13.645-30.477-30.477-30.477h-213.334c-16.832 0-30.476 13.645-30.476 30.477zM694.857 411.43c16.832 0 30.477-13.645 30.477-30.477v-30.477c0-16.832-13.645-30.477-30.477-30.477s-30.477 13.645-30.477 30.477v30.477c0 16.832 13.645 30.477 30.477 30.477zM298.667 320c0 16.832 13.645 30.477 30.476 30.477h121.903c16.832 0 30.477-13.645 30.477-30.477s-13.645-30.477-30.477-30.477h-121.903c-16.832 0-30.476 13.645-30.476 30.477z" />
<glyph unicode="&#xe90f;" glyph-name="check-tick" d="M64 448c0 247.423 200.577 448 448 448s448-200.577 448-448c0-247.424-200.576-448-448-448s-448 200.576-448 448zM706.46 559.926c11.065 15.488 7.475 37.012-8.010 48.074-15.488 11.062-37.012 7.475-48.074-8.013l-177.234-236.7-74.621 74.618c-13.457 13.46-35.277 13.46-48.734 0-13.46-13.457-13.46-35.277 0-48.734l103.384-103.384c7.162-7.165 17.115-10.812 27.21-9.978 10.095 0.836 19.311 6.073 25.199 14.316l200.88 269.801z" />
<glyph unicode="&#xe910;" glyph-name="close-paper" horiz-adv-x="1000" d="M1000.46-64h-976.92v539.071l89.453 180.083c5.885 11.77 20.009 16.478 31.779 10.593s16.478-20.009 10.593-31.779l-84.745-169.49v-481.398h649.71v521.416l101.223 233.048c0 175.375-45.903 175.375-62.382 175.375-95.338-3.531-277.775-2.354-410.777-1.177-48.257 1.177-87.099 1.177-112.993 1.177 0 0 0 0 0 0-61.205 0-101.223-55.32-108.285-84.745-3.531-12.947-16.478-20.009-28.248-17.655-12.947 3.531-20.009 16.478-17.655 28.248 12.947 49.434 70.621 121.232 154.189 121.232 0 0 0 0 0 0 24.717 0 64.736 0 111.816-1.177 125.94-1.177 315.439-2.354 410.777 1.177 96.515 0 110.639-116.524 111.816-221.278l130.648-218.924v-583.798zM767.411-16.92h185.968v523.77l-103.577 174.198-81.214-187.145v-510.823zM7.062 648.092l63.559 195.384c3.531 11.77 17.655 18.832 29.425 15.301s18.832-17.655 15.301-29.425l-23.54-70.621 76.506 48.257 72.975-74.152 128.294 71.798 100.046-71.798 102.4 74.152 76.506-64.736 89.453 204.8c4.708 11.77 18.832 17.655 30.602 11.77 11.77-4.708 17.655-18.832 11.77-30.602l-114.17-262.474-97.692 81.214-97.692-72.975-102.4 74.152-133.002-74.152-71.798 71.798-156.543-97.692zM563.789 45.462h-301.315c-38.841 0-70.621 31.779-70.621 70.621v185.968c0 38.841 31.779 70.621 70.621 70.621h301.315c38.841 0 70.621-31.779 70.621-70.621v-185.968c0-40.018-31.779-70.621-70.621-70.621zM286.014 139.623h254.234v138.887h-254.234v-138.887z" />
<glyph unicode="&#xe911;" glyph-name="bell" horiz-adv-x="866" d="M827.534 283.806l-85.063 92.666v228.339c1.132 84.791-26.093 167.162-76.647 231.904s-121.025 107.483-198.398 120.33c-44.905 6.406-90.555 2.365-133.903-11.856s-83.398-38.293-117.479-70.61c-34.081-32.317-61.407-72.138-80.156-116.802s-28.491-93.149-28.574-142.215v-239.090l-85.065-92.666c-10.685-11.768-17.931-26.687-20.832-42.892s-1.328-32.978 4.522-48.219c5.85-15.242 15.717-28.28 28.368-37.48s27.525-14.155 42.762-14.249h158.789v-17.408c2.207-51.972 23.343-100.88 58.777-136.003s82.274-53.595 130.258-51.373c47.984-2.221 94.825 16.25 130.258 51.373s56.57 84.031 58.777 136.003v17.408h158.789c15.236 0.095 30.107 5.049 42.765 14.249 12.65 9.2 22.512 22.238 28.365 37.48s7.42 32.014 4.521 48.219c-2.899 16.205-10.145 31.124-20.834 42.892zM519.411 123.557c-2.621-24.623-13.911-47.206-31.519-63.039-17.607-15.825-40.174-23.694-62.999-21.945-22.825-1.749-45.392 6.12-63 21.945-17.606 15.833-28.896 38.416-31.518 63.039v17.408h189.035v-17.408zM118.185 243.361l55.765 60.412c8.846 9.526 15.863 20.853 20.649 33.33s7.244 25.858 7.234 39.369v239.090c0.026 34.537 6.871 68.669 20.075 100.105s32.463 59.448 56.484 82.156c23.697 23.26 51.776 40.663 82.293 51.006s62.747 13.377 94.455 8.895c54.653-9.614 104.261-40.293 139.691-86.389s54.296-104.506 53.124-164.476v-230.387c-0.072-13.475 2.312-26.834 7.016-39.309s11.633-23.822 20.394-33.39l56.237-60.412h-613.417z" />
<glyph unicode="&#xe912;" glyph-name="satrap" d="M596.512 582.456c-10.662-16.493-23.45-31.506-38.040-44.649l-94.301-87.179c-22.268-28.599-23.172-66.042-4.408-89.835 17.888-22.609 46.713-24.078 51.545-24.246h500.41c27.017 121.111 9.123 247.912-50.344 356.823s-156.464 192.518-272.951 235.276c-116.491 42.758-244.544 41.755-360.349-2.821s-211.481-129.693-269.236-239.521c-57.755-109.828-73.658-236.894-44.753-357.566 28.906-120.676 100.653-226.749 201.9-298.487 101.247-71.744 225.103-104.274 348.537-91.547 123.432 12.728 238.045 69.852 322.516 160.751h-248.057c-10.639 0.318-21.087 2.951-30.61 7.706-9.523 4.761-17.9 11.53-24.553 19.844l-254.726 261.37c-11.856 11.965-21.721 25.751-29.22 40.834-23.060 46.514-15.882 91.39-12.151 114.676 5.712 34.847 19.090 67.992 39.167 97.042l205.67 194.649c31.13-25.735 56.050-58.162 72.909-94.866 11.756-25.942 25.091-55.416 19.3-92.634-4.634-28.994-18.958-51.234-28.255-65.618z" />
<glyph unicode="&#xe913;" glyph-name="logo-satrap" horiz-adv-x="3891" d="M2644.941 218.258c-17.485 5.75-32.614 16.975-43.187 31.997-17.92 26.278-18.586 61.911-2.611 92.956l120.883 113.93c30.31 23.040 53.197 54.451 65.766 90.332 27.725 83.84-10.778 185.852-97.229 256.701l-249.595-233.103c-29.158-46.607-43.379-100.959-40.773-155.82 2.186-41.134 13.934-81.196 34.317-117.030 24.909-25.62 49.879-51.223 74.911-76.808h-431.232c-13.565 0.604-27.011 2.806-40.056 6.556-12.106 3.489-23.777 8.325-34.796 14.42 31.347 26.747 53.783 62.369 64.328 102.131 20.687 83.899-20.385 178.76-103.788 240.97l-706.842-643.538h403.372l202.314 173.635 119.57-121.795c21.524-21.87 37.727-40.52 66.842-50.232 21.164-7.032 35.871-5.243 89.677-3.456 20.925 0.714 52.134 1.608 90.634 1.848l286.971 272.788 242.499-248.42c12.288-8.901 26.061-15.56 40.704-19.663 15.821-4.355 32.307-5.688 48.614-3.932h783.181l236.518 281.549-1220.992-6.019zM2103.324 591.16c59.003 0 106.836 47.675 106.836 106.483s-47.834 106.481-106.836 106.481c-59.005 0-106.836-47.673-106.836-106.481s47.831-106.483 106.836-106.483zM2339.837 591.16c59.003 0 106.836 47.675 106.836 106.483s-47.834 106.481-106.836 106.481c-59.005 0-106.836-47.673-106.836-106.481s47.831-106.483 106.836-106.483zM808.799-63.987c59.005 0 106.836 47.672 106.836 106.481s-47.831 106.481-106.836 106.481c-59.003 0-106.836-47.672-106.836-106.481s47.834-106.481 106.836-106.481zM568.76-63.987c59.005 0 106.836 47.672 106.836 106.481s-47.831 106.481-106.836 106.481c-59.003 0-106.836-47.672-106.836-106.481s47.834-106.481 106.836-106.481zM305.999-63.987c59.003 0 106.836 47.672 106.836 106.481s-47.834 106.481-106.836 106.481c-59.005 0-106.837-47.672-106.837-106.481s47.832-106.481 106.837-106.481zM1151.245-52.268l585.897 535.567c20.869 21.335 36.219 47.409 44.721 75.973 23.316 80.919-15.007 175.424-94.641 244.902l-572.805-514.652c-37.427-41.459-58.849-94.828-60.442-150.577-1.733-115.121 87.526-183.944 97.27-191.214zM1269.501 529.188l-1038.95-3.635c-8.712-0.509-17.438 0.737-25.656 3.666s-15.759 7.478-22.173 13.376c-7.359 7.168-12.593 16.218-15.126 26.158-2.419 11.377-1.506 23.209 2.631 34.084 5.004 14.971 14.117 28.244 26.306 38.313 17.338 14.182 35.453 30.272 53.807 48.445 23.232 22.876 45.053 47.133 65.346 72.636l-198.369 197.769c-36.469-43.32-100.021-132.641-114.31-259.261-3.766-33.249-25.708-260.454 140.556-388.923 82.982-64.118 174.634-74.127 216.782-75.976l560.069-4.826c6.060 0.712 12.058 1.887 17.935 3.515 14.29 3.994 29.893 11.323 63.073 39.268 11.599 9.833 26.606 23.357 43.346 40.64l224.732 214.751z" />
<glyph unicode="&#xe914;" glyph-name="reload" d="M512-21.333c-227.556 0-412.444 184.889-412.444 412.444s184.889 412.444 412.444 412.444c19.911 0 39.822 0 59.733-2.844l-39.822 45.511c-14.222 17.067-14.222 45.511 2.844 59.733 19.911 17.067 45.511 14.222 62.578-2.844l122.311-142.222c8.533-8.533 11.378-19.911 11.378-34.133s-8.533-22.756-17.067-28.444l-145.067-105.244c-19.911-14.222-45.511-8.533-59.733 8.533-14.222 19.911-8.533 45.511 8.533 59.733l68.267 48.356c-25.6 5.689-48.356 8.533-73.956 8.533-179.2 0-327.111-145.067-327.111-327.111 0-179.2 147.911-327.111 327.111-327.111s327.111 147.911 327.111 327.111c0 65.422-19.911 128-54.044 182.044-14.222 19.911-8.533 45.511 11.378 59.733s45.511 8.533 59.733-11.378c45.511-68.267 68.267-147.911 68.267-230.4 0-227.556-184.889-412.444-412.444-412.444z" />
<glyph unicode="&#xe915;" glyph-name="take-away" horiz-adv-x="1000" d="M1000.46-64h-976.92v539.071l89.453 180.083c5.885 11.77 20.009 16.478 31.779 10.593s16.478-20.009 10.593-31.779l-84.745-169.49v-481.398h649.71v521.416l101.223 233.048c0 175.375-45.903 175.375-62.382 175.375-95.338-3.531-277.775-2.354-410.777-1.177-48.257 1.177-87.099 1.177-112.993 1.177 0 0 0 0 0 0-61.205 0-101.223-55.32-108.285-84.745-3.531-12.947-16.478-20.009-28.248-17.655-12.947 3.531-20.009 16.478-17.655 28.248 12.947 49.434 70.621 121.232 154.189 121.232 0 0 0 0 0 0 24.717 0 64.736 0 111.816-1.177 125.94-1.177 315.439-2.354 410.777 1.177 96.515 0 110.639-116.524 111.816-221.278l130.648-218.924v-583.798zM767.411-16.92h185.968v523.77l-103.577 174.198-81.214-187.145v-510.823zM7.062 648.092l63.559 195.384c3.531 11.77 17.655 18.832 29.425 15.301s18.832-17.655 15.301-29.425l-23.54-70.621 76.506 48.257 72.975-74.152 128.294 71.798 100.046-71.798 102.4 74.152 76.506-64.736 89.453 204.8c4.708 11.77 18.832 17.655 30.602 11.77 11.77-4.708 17.655-18.832 11.77-30.602l-114.17-262.474-97.692 81.214-97.692-72.975-102.4 74.152-133.002-74.152-71.798 71.798-156.543-97.692zM563.789 45.462h-301.315c-38.841 0-70.621 31.779-70.621 70.621v185.968c0 38.841 31.779 70.621 70.621 70.621h301.315c38.841 0 70.621-31.779 70.621-70.621v-185.968c0-40.018-31.779-70.621-70.621-70.621zM286.014 139.623h254.234v138.887h-254.234v-138.887z" />
<glyph unicode="&#xe916;" glyph-name="stay" horiz-adv-x="992" d="M203.744-58.722c-20.058 0-38.004 6.334-52.784 19.002-50.672 40.115-55.951 127.736-55.951 144.627l-46.449 638.68h-48.561v52.784h641.848v-52.784h-539.447l45.394-635.513c1.056-39.060 12.668-87.621 35.893-106.623 8.445-6.334 16.891-8.445 27.447-6.334l9.501-51.728c-6.334-2.111-11.612-2.111-16.891-2.111zM443.814 781.091l78.63 168.333 47.822-22.338-78.63-168.333-47.822 22.338zM435.992-41.831c-79.175 0-167.852 1.056-173.13 104.511v122.458h345.204l111.901-87.621 106.623 87.621h95.010c6.334 6.334 12.668 17.946 12.668 31.67 0 9.501-2.111 22.169-12.668 31.67h-521.501c-39.060-1.056-90.788 8.445-118.235 42.227-12.668 14.779-26.392 41.171-19.002 81.287 1.056 164.685 157.295 280.808 308.256 299.81 146.738 17.946 324.091-50.672 384.264-295.588 3.167-13.724-5.278-28.503-19.002-31.67s-28.503 5.278-31.67 19.002c-65.452 266.029-267.085 262.862-327.258 255.472-128.792-15.835-261.806-112.957-261.806-249.138v-3.167l-1.056-3.167c-3.167-16.891-1.056-29.559 6.334-39.060 14.779-17.946 50.672-25.336 77.064-24.28h539.447l6.334-4.223c27.447-19.002 43.282-48.561 42.227-82.342-1.056-32.726-17.946-64.396-43.282-79.175l-6.334-3.167h-91.843l-124.569-102.4-129.847 102.4h-274.474v-67.563c3.167-48.561 27.447-53.839 122.458-53.839 0 0 0 0 0 0h382.153c74.953 0 79.175 27.447 84.454 57.006 2.111 14.779 15.835 24.28 30.614 21.113 14.779-2.111 24.28-15.835 21.113-30.614-8.445-49.616-31.67-101.344-136.181-101.344h-382.153c-1.056 2.111-2.111 2.111-2.111 2.111z" />
<glyph unicode="&#xe917;" glyph-name="fork" horiz-adv-x="1026" d="M153.299 951.383c-15.029-8.617-21.642-30.459-13.827-46.090 1.804-3.607 40.479-43.886 86.168-89.575 45.689-45.89 82.962-84.365 82.962-85.768 0-1.202-2.605-5.21-6.012-8.817l-5.811-6.613-90.777 90.777c-80.357 80.157-91.579 90.577-96.989 90.577-7.815 0-14.829-7.214-14.829-15.23 0-5.010 12.424-18.236 90.577-96.388l90.577-90.577-11.623-12.424-90.377 90.176c-49.497 49.497-92.18 90.577-94.384 91.178-8.817 2.605-18.837-6.212-18.837-16.432 0-1.804 41.080-44.487 91.178-94.585l91.178-91.378-5.611-5.411c-3.006-3.006-7.414-5.411-9.619-5.411-2.405 0-34.267 30.459-86.97 83.162-89.375 89.375-91.178 90.978-108.412 88.573-11.422-1.603-22.644-9.619-27.654-19.839-5.010-10.621-5.21-20.039-0.601-30.059 3.006-6.413 153.901-187.767 178.749-214.82 12.625-13.827 34.467-27.454 54.306-34.267 16.031-5.411 19.238-5.811 66.931-7.214 71.339-2.204 74.345-3.206 117.029-48.495 10.020-10.621 13.827-13.426 18.636-13.426 7.214 0 15.631 8.016 15.631 14.829 0 9.819-41.481 52.903-60.117 62.322-25.049 12.625-29.057 13.426-84.164 15.029-43.485 1.202-52.703 2.204-62.121 5.611-15.029 5.21-25.45 10.821-34.467 18.035-11.222 8.817-181.955 212.615-181.955 217.024 0 2.204 1.403 3.807 3.607 3.807 1.804 0 38.876-35.469 83.563-80.357 44.086-44.086 83.964-82.561 88.573-85.166 11.022-6.613 26.452-7.014 37.674-1.202s86.168 81.559 90.176 90.978c3.607 8.817 3.807 17.634 0.802 28.656-1.804 6.813-15.029 21.041-86.369 92.581-81.96 81.96-89.575 90.777-79.155 90.777 3.006 0 209.81-173.339 215.621-180.753 8.016-10.22 17.033-27.253 20.64-39.677 3.206-10.621 4.208-22.444 5.411-63.123 1.603-54.306 3.006-61.52 15.43-82.762 11.422-19.638 51.1-56.51 60.719-56.51 7.214 0 14.228 7.414 14.228 15.43 0 5.010-2.605 8.617-13.426 18.837-29.658 28.055-35.87 36.070-42.283 54.907-2.004 5.411-3.407 24.047-4.409 58.114-1.202 43.685-2.004 51.901-6.012 64.125-6.012 19.037-16.833 39.477-27.253 50.899-10.020 11.222-212.615 181.955-221.833 187.166-9.018 4.809-24.448 4.409-34.467-1.202zM915.789 942.967c-1.603-0.401-9.819-1.804-18.035-3.006-39.677-6.613-84.164-25.85-117.63-51.1-22.243-16.632-91.579-78.353-99.394-88.373-9.619-12.023-24.047-42.082-27.854-56.911-1.804-8.016-2.405-20.44-1.603-45.088 1.804-63.724 1.202-74.946-3.807-87.771-2.605-6.413-8.817-16.833-14.228-23.045-5.21-6.212-115.826-120.636-245.68-254.096-130.054-133.461-242.273-249.086-249.688-256.902-16.031-17.033-20.64-25.45-23.646-42.683-6.212-35.269 14.228-74.145 46.691-88.974 28.255-13.025 63.724-9.018 84.565 9.218 4.208 3.807 108.412 131.657 231.452 284.355 123.241 152.899 229.047 282.351 235.059 287.962 20.039 18.035 30.259 21.241 83.563 24.648 42.483 2.805 56.51 5.811 79.756 17.234 27.053 13.025 42.283 29.057 76.95 79.956 14.829 22.043 31.662 48.094 37.273 57.913 27.454 47.693 40.479 108.412 34.868 163.119-2.805 27.654-6.012 37.874-15.43 50.298-15.23 19.438-28.255 24.247-63.925 24.047-14.428-0.2-27.654-0.601-29.257-0.802zM973.902 909.501c13.226-6.813 17.634-16.833 19.839-46.090 4.409-53.505-8.617-107.209-36.672-151.897-19.238-30.86-56.51-83.964-65.127-92.982-17.033-18.035-41.681-30.86-65.328-34.067-4.409-0.601-23.847-2.204-43.084-3.407-51.501-3.206-74.345-11.823-98.593-37.072-5.010-5.411-109.814-134.663-232.855-287.361-202.195-250.89-224.639-278.143-233.857-282.953-24.648-13.426-56.711-2.405-68.734 23.446-6.012 12.424-7.014 30.86-2.405 41.681 1.603 4.008 94.785 101.398 230.65 241.071 125.445 128.852 240.87 247.283 256.301 263.314 21.642 22.243 30.059 32.463 35.67 43.285 13.226 25.049 14.228 32.864 12.625 89.976-1.202 43.685-1.002 51.701 2.004 63.123 3.807 14.829 12.424 31.862 21.442 42.884 5.811 7.014 54.907 51.1 81.359 72.942 45.088 37.273 100.797 57.713 158.71 58.314 16.232 0.2 20.64-0.601 28.055-4.208zM643.657 378.865c-6.413-6.012-6.012-16.833 1.202-23.847 3.006-2.805 79.956-73.143 170.934-155.905 133.060-121.036 166.124-152.297 169.331-159.111 5.21-11.623 4.809-28.055-1.002-40.88-8.617-19.037-22.444-28.856-43.685-30.66-24.849-2.004-14.629-11.623-171.335 160.514-175.543 192.977-164.922 181.755-173.138 181.755-8.016 0-14.829-6.413-14.829-14.228 0-3.006 2.405-8.416 5.411-12.224 11.623-13.827 291.97-321.428 298.984-327.84 22.243-20.44 57.512-24.648 87.371-10.621 46.090 21.442 61.721 83.964 30.66 121.838-6.413 7.615-253.094 233.857-335.856 307.801-9.619 8.416-17.234 9.619-24.047 3.407z" />
<glyph unicode="&#xe918;" glyph-name="collapse-up" horiz-adv-x="768" d="M384 927.086v0c14.629 0 29.257-7.314 36.571-18.286l310.857-402.286c14.629-18.286 10.971-47.543-7.314-65.829-18.286-14.629-47.543-10.971-65.829 7.314l-274.286 354.743-274.286-354.743c-14.629-18.286-43.886-21.943-65.829-7.314-18.286 14.629-21.943 43.886-7.314 65.829l310.857 402.286c7.314 10.971 21.943 18.286 36.571 18.286zM384 458.971v0c14.629 0 29.257-7.314 36.571-18.286l310.857-402.286c14.629-21.943 10.971-51.2-7.314-65.829-21.943-14.629-51.2-10.971-65.829 7.314l-274.286 354.743-274.286-354.743c-14.629-18.286-43.886-21.943-65.829-7.314-18.286 14.629-21.943 43.886-7.314 65.829l310.857 402.286c7.314 10.971 21.943 18.286 36.571 18.286z" />
<glyph unicode="&#xe919;" glyph-name="collapse-down" horiz-adv-x="768" d="M384-31.086v0c-14.629 0-29.257 7.314-36.571 18.286l-310.857 402.286c-14.629 18.286-10.971 47.543 7.314 65.829 18.286 14.629 47.543 10.971 65.829-7.314l274.286-354.743 274.286 354.743c14.629 18.286 43.886 21.943 65.829 7.314 18.286-14.629 21.943-43.886 7.314-65.829l-310.857-402.286c-7.314-10.971-21.943-18.286-36.571-18.286zM384 437.029v0c-14.629 0-29.257 7.314-36.571 18.286l-310.857 402.286c-14.629 21.943-10.971 51.2 7.314 65.829 21.943 14.629 51.2 10.971 65.829-7.314l274.286-354.743 274.286 354.743c14.629 18.286 43.886 21.943 65.829 7.314 18.286-14.629 21.943-43.886 7.314-65.829l-310.857-402.286c-7.314-10.971-21.943-18.286-36.571-18.286z" />
<glyph unicode="&#xe91a;" glyph-name="user" horiz-adv-x="805" d="M416.402 466.826c43.87 0 86.755 12.393 123.233 35.61s64.907 56.219 81.695 94.83c16.788 38.61 21.181 81.096 12.622 122.084s-29.684 78.639-60.705 108.19c-31.021 29.551-70.544 49.676-113.572 57.829s-87.627 3.968-128.157-12.025c-40.531-15.993-75.173-43.076-99.547-77.824s-37.382-75.602-37.382-117.393c0-56.041 23.369-109.786 64.968-149.413s98.017-61.888 156.845-61.888zM416.402 783.778c21.936 0 43.378-6.196 61.616-17.805s32.453-28.11 40.848-47.415c8.394-19.305 10.59-40.548 6.311-61.042s-14.842-39.319-30.353-54.095c-15.51-14.776-35.272-24.838-56.785-28.914s-43.813-1.984-64.079 6.012c-20.266 7.997-37.587 21.538-49.773 38.913s-18.691 37.8-18.691 58.696c0 28.020 11.685 54.893 32.483 74.706s49.009 30.945 78.422 30.945zM416.422 361.143c-102.95 0-201.683-38.959-274.479-108.306-72.797-69.344-113.693-163.398-113.693-261.475 0-14.007 5.842-27.443 16.242-37.347 10.399-9.911 24.504-15.477 39.211-15.477s28.812 5.566 39.211 15.477c10.399 9.904 16.242 23.34 16.242 37.347 0 70.056 29.212 137.238 81.209 186.77s122.521 77.36 196.057 77.36c73.536 0 144.059-27.828 196.057-77.36s81.209-116.714 81.209-186.77c0-14.007 5.842-27.443 16.242-37.347 10.399-9.911 24.505-15.477 39.214-15.477 14.702 0 28.811 5.566 39.205 15.477 10.401 9.904 16.245 23.34 16.245 37.347 0 98.077-40.894 192.132-113.693 261.475-72.796 69.347-171.53 108.306-274.479 108.306z" />
<glyph unicode="&#xe91b;" glyph-name="location" d="M511.994 874.714c-89.939 0.005-176.245-35.488-240.16-98.764s-100.274-149.221-101.173-239.156c0-233.813 300.8-494.079 313.6-505.174 7.728-6.612 17.564-10.24 27.734-10.24s20.005 3.628 27.734 10.24c14.933 11.096 313.601 271.361 313.601 505.174-0.9 89.935-37.259 175.88-101.171 239.156-63.918 63.276-150.224 98.769-240.163 98.764zM511.994 121.651c-71.254 67.84-256 255.996-256 415.143 0 67.896 26.971 133.010 74.98 181.020s113.124 74.98 181.020 74.98c67.896 0 133.010-26.971 181.019-74.98 48.012-48.010 74.979-113.124 74.979-181.020 0-157.866-184.746-347.303-255.999-415.143zM511.994 704c-29.535 0-58.407-8.758-82.965-25.167s-43.698-39.732-55.001-67.019c-11.303-27.287-14.261-57.313-8.498-86.282s19.985-55.576 40.869-76.461c20.885-20.884 47.494-35.107 76.461-40.869s58.994-2.805 86.281 8.498c27.287 11.303 50.61 30.443 67.019 55.001s25.168 53.43 25.168 82.965c0 39.606-15.734 77.589-43.739 105.595s-65.989 43.739-105.595 43.739zM511.994 490.666c-12.658 0-25.032 3.754-35.556 10.786s-18.728 17.028-23.572 28.722c-4.844 11.694-6.111 24.562-3.642 36.977s8.565 23.818 17.516 32.769c8.95 8.95 20.354 15.046 32.769 17.516s25.283 1.202 36.977-3.642c11.694-4.844 21.69-13.047 28.722-23.572s10.786-22.899 10.786-35.557c0-16.974-6.743-33.252-18.745-45.254s-28.281-18.746-45.255-18.746z" />
<glyph unicode="&#xe91c;" glyph-name="arrow-circle-right" d="M102.4 516.267c0 225.69 183.501 409.6 409.6 409.6 225.69 0 409.6-183.91 409.6-409.6 0-226.099-183.91-409.6-409.6-409.6-226.099 0-409.6 183.501-409.6 409.6zM431.309 395.844c-12.288-11.878-12.288-31.539-0.41-43.418 12.288-12.288 31.539-12.288 43.418 0l142.95 142.131c5.734 5.734 9.011 13.517 9.011 21.709s-3.277 15.974-9.011 21.709l-142.95 142.131c-5.734 6.144-13.517 9.011-21.299 9.011-8.192 0-15.974-2.867-22.118-9.011-11.878-12.288-11.878-31.539 0.41-43.418l120.832-120.422-120.832-120.422z" />
<glyph unicode="&#xe91d;" glyph-name="arrow-circle-left" d="M921.6 516.267c0-225.69-183.501-409.6-409.6-409.6-225.69 0-409.6 183.91-409.6 409.6 0 226.099 183.91 409.6 409.6 409.6 226.099 0 409.6-183.501 409.6-409.6zM592.691 636.689c12.288 11.878 12.288 31.539 0.41 43.418-12.288 12.288-31.539 12.288-43.418 0l-142.95-142.131c-5.734-5.734-9.011-13.517-9.011-21.709s3.277-15.974 9.011-21.709l142.95-142.131c5.734-6.144 13.517-9.011 21.299-9.011 8.192 0 15.974 2.867 22.118 9.011 11.878 12.288 11.878 31.539-0.41 43.418l-120.832 120.422 120.832 120.422z" />
<glyph unicode="&#xe91e;" glyph-name="dinein" d="M453.632 558.592h-93.184c-7.168 0-14.336 4.096-19.456 10.24v0l-17.408 24.576c-5.12 7.168-6.144 16.384-2.048 24.576s12.288 12.288 20.48 12.288h129.024c9.216 0 16.384-5.12 20.48-12.288 4.096-8.192 3.072-17.408-2.048-24.576l-17.408-24.576c-4.096-6.144-11.264-10.24-18.432-10.24zM357.376 580.096c1.024-1.024 1.024-1.024 2.048-1.024h93.184c1.024 0 2.048 0 2.048 1.024l17.408 24.576c1.024 1.024 1.024 2.048 0 3.072 0 1.024-1.024 2.048-3.072 2.048h-125.952c-1.024 0-2.048-1.024-3.072-2.048 0-1.024-1.024-2.048 0-3.072l17.408-24.576zM547.84 111.104h-67.584v198.656h67.584v-198.656zM500.736 131.584h26.624v157.696h-26.624v-157.696zM544.768 175.616h-62.464c-5.12 0-8.192 4.096-8.192 8.192v50.176c0 5.12 4.096 8.192 8.192 8.192h62.464c5.12 0 8.192-4.096 8.192-8.192v-50.176c1.024-4.096-3.072-8.192-8.192-8.192zM544.768 165.376h-62.464c-10.24 0-19.456 8.192-19.456 18.432v50.176c0 10.24 8.192 18.432 19.456 18.432h62.464c10.24 0 18.432-8.192 18.432-18.432v-50.176c1.024-10.24-7.168-18.432-18.432-18.432zM484.352 185.856h59.392v47.104h-59.392v-47.104zM654.336 558.592h-54.272c-9.216 0-17.408 7.168-17.408 17.408v104.448c0 2.048 0 5.12 1.024 7.168l17.408 36.864v10.24c0 9.216 7.168 17.408 17.408 17.408h17.408c9.216 0 17.408-7.168 17.408-17.408v-10.24l16.384-36.864c1.024-2.048 1.024-4.096 1.024-7.168v-104.448c1.024-10.24-7.168-17.408-16.384-17.408zM603.136 579.072h47.104v100.352l-15.36 36.864c-1.024 2.048-1.024 5.12-1.024 7.168v8.192h-11.264v-7.168c0-2.048 0-5.12-1.024-7.168l-17.408-36.864v-101.376zM651.264 679.424c0 0 0 0 0 0v0zM653.312 725.504v0c0-1.024 0 0 0 0zM643.072 730.624h-30.72c-7.168 0-13.312 6.144-13.312 13.312v27.648c0 7.168 6.144 13.312 13.312 13.312h30.72c7.168 0 13.312-6.144 13.312-13.312v-26.624c0-8.192-6.144-14.336-13.312-14.336zM618.496 751.104h17.408v14.336h-17.408v-14.336zM653.312 598.528h-23.552c-9.216 0-17.408 8.192-17.408 17.408v31.744c0 9.216 8.192 17.408 17.408 17.408h23.552c9.216 0 17.408-8.192 17.408-17.408v-31.744c1.024-9.216-7.168-17.408-17.408-17.408zM632.832 619.008h18.432v25.6h-18.432v-25.6zM546.816 605.696c-18.432 0-33.792 15.36-33.792 33.792v47.104h66.56v-47.104c1.024-19.456-14.336-33.792-32.768-33.792zM534.528 665.088v-26.624c0-7.168 6.144-13.312 13.312-13.312s13.312 6.144 13.312 13.312v26.624h-26.624zM546.816 562.688c-6.144 0-10.24 4.096-10.24 10.24v41.984c0 6.144 4.096 10.24 10.24 10.24s10.24-4.096 10.24-10.24v-41.984c0-5.12-4.096-10.24-10.24-10.24zM901.12 111.104h-23.552c-12.288 0-22.528 9.216-22.528 21.504l-11.264 198.656c0 1.024-1.024 2.048-2.048 2.048h-153.6c-1.024 0-2.048-1.024-2.048-2.048l-41.984-202.752c-2.048-10.24-11.264-18.432-22.528-18.432h-24.576c-7.168 0-13.312 3.072-17.408 8.192s-6.144 11.264-5.12 18.432l31.744 179.2c1.024 5.12 6.144 9.216 12.288 8.192 5.12-1.024 9.216-6.144 8.192-12.288l-31.744-179.2c0-1.024 0-1.024 1.024-2.048 0 0 1.024-1.024 2.048-1.024h24.576c1.024 0 2.048 1.024 2.048 2.048l40.96 203.776c2.048 10.24 11.264 18.432 22.528 18.432h152.576c12.288 0 21.504-9.216 22.528-21.504l11.264-198.656c0-1.024 1.024-2.048 2.048-2.048h24.576c1.024 0 1.024 0 2.048 1.024 0 0 1.024 1.024 1.024 2.048l-15.36 246.784 15.36 245.76c0 1.024 0 1.024-1.024 2.048 0 0-1.024 1.024-2.048 1.024h-24.576c-1.024 0-2.048-1.024-2.048-2.048l-9.216-189.44c0 0 1.024-28.672-16.384-46.080-9.216-9.216-22.528-13.312-37.888-12.288h-36.864c-6.144 0-10.24 4.096-10.24 10.24s4.096 10.24 10.24 10.24h37.888c10.24-1.024 18.432 1.024 23.552 6.144 11.264 10.24 10.24 31.744 10.24 31.744l9.216 190.464c1.024 12.288 10.24 21.504 22.528 21.504h23.552c6.144 0 12.288-3.072 16.384-7.168s6.144-10.24 6.144-17.408l-15.36-244.736v-1.024l15.36-243.712c0-6.144-2.048-12.288-6.144-16.384-4.096-7.168-10.24-9.216-16.384-9.216zM856.064 272.896h-190.464c-6.144 0-10.24 4.096-10.24 10.24s4.096 10.24 10.24 10.24h190.464c6.144 0 10.24-4.096 10.24-10.24s-5.12-10.24-10.24-10.24zM425.984 111.104h-24.576c-11.264 0-19.456 7.168-22.528 18.432l-40.96 201.728c0 1.024-1.024 2.048-2.048 2.048h-152.576c-1.024 0-2.048-1.024-2.048-2.048l-11.264-198.656c-1.024-12.288-10.24-21.504-22.528-21.504h-24.576c-6.144 0-12.288 3.072-16.384 7.168s-6.144 10.24-6.144 17.408l15.36 244.736v1.024l-15.36 242.688c0 6.144 2.048 12.288 6.144 16.384s10.24 7.168 16.384 7.168h24.576c12.288 0 22.528-9.216 22.528-21.504l9.216-188.416c0-1.024-1.024-21.504 10.24-32.768 5.12-5.12 12.288-7.168 22.528-6.144h38.912c6.144 0 10.24-4.096 10.24-10.24s-4.096-10.24-10.24-10.24h-37.888c-15.36-1.024-27.648 3.072-37.888 12.288-17.408 17.408-16.384 46.080-16.384 47.104l-9.216 188.416c0 1.024-1.024 2.048-2.048 2.048h-24.576c-1.024 0-1.024 0-2.048-1.024 0 0-1.024-1.024-1.024-2.048l15.36-246.784-15.36-245.76c0-1.024 0-1.024 1.024-2.048 0 0 1.024-1.024 2.048-1.024h23.552c1.024 0 2.048 1.024 2.048 2.048l11.264 198.656c1.024 12.288 10.24 21.504 22.528 21.504h152.576c11.264 0 20.48-7.168 22.528-18.432l40.96-202.752c0-1.024 1.024-2.048 2.048-2.048h24.576c1.024 0 1.024 0 2.048 1.024 0 0 1.024 1.024 0 2.048l-31.744 179.2c-1.024 5.12 3.072 11.264 8.192 12.288s11.264-3.072 12.288-8.192l31.744-179.2c1.024-7.168-1.024-13.312-5.12-18.432-3.072-4.096-9.216-6.144-16.384-6.144zM358.4 272.896h-190.464c-6.144 0-10.24 4.096-10.24 10.24s4.096 10.24 10.24 10.24h190.464c6.144 0 10.24-4.096 10.24-10.24s-5.12-10.24-10.24-10.24zM697.344 558.592c0 0 30.72-3.072 36.864-37.888l22.528-105.472c0 0 16.384-43.008-18.432-53.248l-33.792-10.24c0 0-3.072-1.024-8.192-1.024-9.216 0-24.576 4.096-32.768 25.6 0 0 4.096-36.864-19.456-43.008l-37.888-10.24c0 0-2.048 0-5.12 0-8.192 0-24.576 3.072-31.744 22.528 0 0 0-32.768-27.648-35.84h-51.2c0 0-24.576 0-34.816 28.672 0 0-13.312-17.408-31.744-17.408-2.048 0-5.12 0-7.168 1.024l-35.84 13.312c0 0-18.432 8.192-18.432 33.792 0 0-13.312-16.384-29.696-16.384-2.048 0-3.072 0-5.12 1.024l-40.96 12.288c-11.264 4.096-19.456 12.288-21.504 23.552-1.024 4.096 0 8.192 1.024 13.312 1.024 2.048 2.048 4.096 2.048 7.168l23.552 109.568c0 0 1.024 17.408 16.384 32.768 4.096 4.096 9.216 6.144 15.36 6.144h373.76zM698.368 579.072v0h-374.784c-11.264 0-21.504-4.096-29.696-11.264-18.432-17.408-21.504-37.888-22.528-45.056l-22.528-108.544c0 0-1.024-2.048-1.024-2.048v-1.024c-3.072-7.168-4.096-15.36-3.072-23.552 2.048-18.432 16.384-34.816 34.816-40.96l40.96-13.312h2.048c3.072-1.024 7.168-1.024 10.24-1.024 7.168 0 13.312 2.048 18.432 4.096 7.168-10.24 15.36-16.384 21.504-18.432h2.048l36.864-12.288c4.096-1.024 8.192-2.048 13.312-2.048 10.24 0 19.456 3.072 26.624 7.168 13.312-14.336 29.696-18.432 39.936-18.432h52.224c15.36 2.048 25.6 9.216 32.768 18.432 7.168-3.072 15.36-5.12 23.552-5.12 5.12 0 8.192 1.024 9.216 1.024h2.048l37.888 10.24c12.288 3.072 21.504 11.264 26.624 20.48 8.192-3.072 15.36-4.096 20.48-4.096 7.168 0 12.288 1.024 13.312 2.048l33.792 10.24c18.432 5.12 27.648 16.384 31.744 25.6 10.24 21.504 3.072 46.080 1.024 53.248l-22.528 104.448c-6.144 35.84-37.888 49.152-55.296 50.176v0 0zM375.808 445.952c-1.024 0-1.024 0 0 0-6.144 1.024-10.24 5.12-10.24 11.264l3.072 31.744c1.024 5.12 5.12 10.24 11.264 9.216 5.12-1.024 10.24-5.12 9.216-11.264l-3.072-32.768c-1.024-5.12-5.12-8.192-10.24-8.192zM565.248 430.592c-6.144 0-10.24 4.096-10.24 10.24v32.768c0 6.144 4.096 10.24 10.24 10.24s10.24-4.096 10.24-10.24v-32.768c0-5.12-5.12-10.24-10.24-10.24zM354.304 338.432c-1.024 0-2.048 0-3.072 0-5.12 2.048-8.192 7.168-7.168 12.288l16.384 56.32c2.048 5.12 7.168 8.192 12.288 7.168 5.12-2.048 8.192-7.168 7.168-12.288l-16.384-56.32c-1.024-4.096-5.12-7.168-9.216-7.168zM454.656 312.832c-1.024 0-1.024 0 0 0-6.144 1.024-10.24 5.12-10.24 11.264l6.144 70.656c0 5.12 5.12 10.24 11.264 9.216 6.144 0 10.24-5.12 9.216-11.264l-6.144-70.656c-1.024-5.12-5.12-9.216-10.24-9.216zM572.416 312.832c-5.12 0-9.216 4.096-10.24 9.216l-9.216 62.464c-1.024 5.12 3.072 11.264 8.192 11.264 5.12 1.024 11.264-3.072 11.264-8.192l9.216-62.464c1.024-5.12-3.072-11.264-8.192-11.264 0-1.024 0-1.024-1.024-1.024zM670.72 341.504c-4.096 0-8.192 3.072-10.24 7.168l-16.384 56.32c-2.048 5.12 1.024 11.264 7.168 12.288 5.12 2.048 11.264-1.024 12.288-7.168l16.384-56.32c2.048-5.12-1.024-11.264-7.168-12.288 0 0-1.024 0-2.048 0zM587.776 111.104h-152.576c-6.144 0-10.24 4.096-10.24 10.24s4.096 10.24 10.24 10.24h152.576c6.144 0 10.24-4.096 10.24-10.24s-4.096-10.24-10.24-10.24z" />
<glyph unicode="&#xe91f;" glyph-name="takeaway" d="M771.072 846.336c7.168 0 12.288-6.144 12.288-12.288v-158.72c0-4.096 2.048-8.192 6.144-10.24 18.432-12.288 76.8-57.344 110.592-162.816 6.144-19.456 9.216-39.936 9.216-60.416 0-80.896 0-323.584 0-380.928 0-7.168-6.144-12.288-12.288-12.288h-771.072c-7.168 0-12.288 6.144-12.288 12.288v368.64c0 30.72 5.12 60.416 16.384 88.064 17.408 45.056 50.176 110.592 105.472 146.432 4.096 2.048 6.144 6.144 6.144 10.24 0 26.624 0 124.928 0 159.744 0 7.168 5.12 12.288 12.288 12.288h517.12zM771.072 866.816h-517.12c-18.432 0-32.768-14.336-32.768-32.768v-154.624c-57.344-38.912-91.136-104.448-110.592-153.6-11.264-29.696-17.408-62.464-17.408-96.256v-369.664c0-18.432 14.336-32.768 32.768-32.768h770.048c18.432 0 32.768 14.336 32.768 32.768v380.928c0 22.528-3.072 45.056-10.24 66.56-32.768 105.472-92.16 155.648-114.688 171.008v155.648c1.024 17.408-14.336 32.768-32.768 32.768v0zM436.224 673.28h-194.56c-6.144 0-10.24 4.096-10.24 10.24s4.096 10.24 10.24 10.24h194.56c6.144 0 10.24-4.096 10.24-10.24s-4.096-10.24-10.24-10.24zM550.912 673.28h-81.92c-6.144 0-10.24 4.096-10.24 10.24s4.096 10.24 10.24 10.24h81.92c6.144 0 10.24-4.096 10.24-10.24s-5.12-10.24-10.24-10.24zM318.464 358.912c-6.144 0-10.24 4.096-10.24 10.24v70.656c0 6.144 4.096 10.24 10.24 10.24s10.24-4.096 10.24-10.24v-70.656c0-5.12-4.096-10.24-10.24-10.24zM382.976 358.912c-6.144 0-10.24 4.096-10.24 10.24v70.656c0 6.144 4.096 10.24 10.24 10.24s10.24-4.096 10.24-10.24v-70.656c0-5.12-4.096-10.24-10.24-10.24zM448.512 358.912c-6.144 0-10.24 4.096-10.24 10.24v70.656c0 6.144 4.096 10.24 10.24 10.24s10.24-4.096 10.24-10.24v-70.656c0-5.12-5.12-10.24-10.24-10.24zM334.848 230.912c-6.144 0-10.24 4.096-10.24 10.24v14.336c0 6.144 4.096 10.24 10.24 10.24s10.24-4.096 10.24-10.24v-14.336c0-5.12-5.12-10.24-10.24-10.24zM380.928 230.912c-6.144 0-10.24 4.096-10.24 10.24v14.336c0 6.144 4.096 10.24 10.24 10.24s10.24-4.096 10.24-10.24v-14.336c0-5.12-4.096-10.24-10.24-10.24zM428.032 230.912c-6.144 0-10.24 4.096-10.24 10.24v14.336c0 6.144 4.096 10.24 10.24 10.24s10.24-4.096 10.24-10.24v-14.336c0-5.12-4.096-10.24-10.24-10.24zM601.088 673.28h-18.432c-6.144 0-10.24 4.096-10.24 10.24s4.096 10.24 10.24 10.24h18.432c6.144 0 10.24-4.096 10.24-10.24s-4.096-10.24-10.24-10.24zM814.080 410.112h-135.168c-6.144 0-10.24 4.096-10.24 10.24s4.096 10.24 10.24 10.24h134.144c6.144 0 10.24-4.096 10.24-10.24s-4.096-10.24-9.216-10.24zM869.376 410.112h-23.552c-6.144 0-10.24 4.096-10.24 10.24s4.096 10.24 10.24 10.24h23.552c6.144 0 10.24-4.096 10.24-10.24s-4.096-10.24-10.24-10.24zM637.952 796.16c15.36 0 27.648-12.288 27.648-27.648s-12.288-27.648-27.648-27.648h-256c-15.36 0-27.648 12.288-27.648 27.648s12.288 27.648 27.648 27.648h256zM637.952 816.64h-256c-26.624 0-48.128-21.504-48.128-48.128s21.504-48.128 48.128-48.128h256c26.624 0 48.128 21.504 48.128 48.128s-21.504 48.128-48.128 48.128v0zM678.912 37.376c-6.144 0-10.24 4.096-10.24 10.24v419.84c0 5.12 4.096 109.568 116.736 215.040 4.096 4.096 10.24 4.096 14.336 0s4.096-10.24 0-14.336c-106.496-100.352-110.592-199.68-110.592-200.704v-419.84c0-6.144-4.096-10.24-10.24-10.24zM527.36 199.168c10.24 0 18.432-9.216 16.384-19.456-1.024-8.192-9.216-13.312-17.408-13.312h-13.312l-18.432-43.008h-222.208l-18.432 43.008h-14.336c-10.24 0-18.432 9.216-16.384 19.456 1.024 8.192 9.216 13.312 17.408 13.312h286.72zM527.36 219.648h-287.744c-18.432 0-34.816-13.312-36.864-30.72-2.048-11.264 1.024-21.504 8.192-29.696s17.408-13.312 28.672-13.312h1.024l13.312-30.72 5.12-12.288h249.856l5.12 12.288 13.312 29.696c18.432 0 34.816 13.312 36.864 30.72 2.048 11.264-1.024 21.504-8.192 29.696-7.168 10.24-17.408 14.336-28.672 14.336v0zM502.784 199.168h-20.48c0 57.344-44.032 104.448-98.304 105.472-25.6 1.024-50.176-9.216-68.608-27.648-20.48-19.456-31.744-47.104-31.744-76.8v-1.024h-20.48v2.048c0 34.816 14.336 67.584 37.888 91.136 22.528 22.528 52.224 33.792 82.944 33.792 66.56-1.024 118.784-58.368 118.784-126.976z" />
</font>
</defs>
</svg>
